<mxfile host="app.diagrams.net" modified="2022-02-02T13:43:06.086Z" agent="5.0 (Macintosh; Intel Mac OS X 10_15_7) AppleWebKit/605.1.15 (KHTML, like Gecko) Version/15.3 Safari/605.1.15" etag="2w6u4_4TGpxwxHEaKQCp" version="16.5.3" type="github">
  <diagram id="dQYsHAcI6JB0dbyWoWvz" name="Page-1">
    <mxGraphModel dx="946" dy="673" grid="1" gridSize="10" guides="1" tooltips="1" connect="1" arrows="1" fold="1" page="1" pageScale="1" pageWidth="827" pageHeight="1169" math="0" shadow="0">
      <root>
        <mxCell id="0" />
        <mxCell id="1" parent="0" />
        <mxCell id="pZtj0GvA_W0bMSEFH96x-2" value="&lt;font style=&quot;font-size: 45px&quot;&gt;&amp;lt;&lt;/font&gt;&lt;font style=&quot;font-size: 45px&quot;&gt;&lt;font color=&quot;#009900&quot;&gt;FormCodeur &amp;nbsp;&lt;/font&gt;&lt;font color=&quot;#cccc00&quot;&gt;onClick &lt;/font&gt;&lt;font color=&quot;#3399ff&quot;&gt;= &lt;/font&gt;&lt;font color=&quot;#cc00cc&quot;&gt;{&lt;/font&gt;...&lt;font color=&quot;#cc00cc&quot;&gt;}&lt;/font&gt;&lt;/font&gt;&lt;font style=&quot;font-size: 45px&quot;&gt;/&amp;gt;&lt;/font&gt;" style="text;html=1;strokeColor=none;fillColor=none;align=center;verticalAlign=middle;whiteSpace=wrap;rounded=0;strokeWidth=2;" vertex="1" parent="1">
          <mxGeometry x="30" y="10" width="730" height="200" as="geometry" />
        </mxCell>
      </root>
    </mxGraphModel>
  </diagram>
</mxfile>
